<mxfile host="app.diagrams.net" agent="Mozilla/5.0 (Windows NT 10.0; Win64; x64) AppleWebKit/537.36 (KHTML, like Gecko) Chrome/131.0.0.0 Safari/537.36" version="26.0.7">
  <diagram name="Page-1" id="GVu4pdoxSiWVch-q1vi6">
    <mxGraphModel dx="1970" dy="434" grid="1" gridSize="10" guides="1" tooltips="1" connect="1" arrows="1" fold="1" page="1" pageScale="1" pageWidth="850" pageHeight="1100" math="0" shadow="0">
      <root>
        <mxCell id="0" />
        <mxCell id="1" parent="0" />
        <mxCell id="BvYLNxid05pZm9tOstEs-29" style="edgeStyle=orthogonalEdgeStyle;rounded=0;orthogonalLoop=1;jettySize=auto;html=1;" parent="1" source="BvYLNxid05pZm9tOstEs-1" target="BvYLNxid05pZm9tOstEs-7" edge="1">
          <mxGeometry relative="1" as="geometry" />
        </mxCell>
        <mxCell id="BvYLNxid05pZm9tOstEs-1" value="start" style="ellipse;whiteSpace=wrap;html=1;" parent="1" vertex="1">
          <mxGeometry x="230" y="40" width="120" height="60" as="geometry" />
        </mxCell>
        <mxCell id="BvYLNxid05pZm9tOstEs-2" value="end" style="ellipse;whiteSpace=wrap;html=1;" parent="1" vertex="1">
          <mxGeometry x="680" y="300" width="120" height="80" as="geometry" />
        </mxCell>
        <mxCell id="BvYLNxid05pZm9tOstEs-30" style="edgeStyle=orthogonalEdgeStyle;rounded=0;orthogonalLoop=1;jettySize=auto;html=1;" parent="1" source="BvYLNxid05pZm9tOstEs-7" target="BvYLNxid05pZm9tOstEs-19" edge="1">
          <mxGeometry relative="1" as="geometry" />
        </mxCell>
        <mxCell id="BvYLNxid05pZm9tOstEs-7" value="imput&lt;div&gt;customerLastName = &quot;please enter your last name&quot;&lt;/div&gt;" style="shape=parallelogram;perimeter=parallelogramPerimeter;whiteSpace=wrap;html=1;fixedSize=1;" parent="1" vertex="1">
          <mxGeometry x="220" y="140" width="140" height="70" as="geometry" />
        </mxCell>
        <mxCell id="BvYLNxid05pZm9tOstEs-8" value="imput&amp;nbsp;&lt;div&gt;numberOfBathrooms&lt;/div&gt;" style="shape=parallelogram;perimeter=parallelogramPerimeter;whiteSpace=wrap;html=1;fixedSize=1;" parent="1" vertex="1">
          <mxGeometry x="-70" y="160" width="140" height="70" as="geometry" />
        </mxCell>
        <mxCell id="BvYLNxid05pZm9tOstEs-28" style="edgeStyle=orthogonalEdgeStyle;rounded=0;orthogonalLoop=1;jettySize=auto;html=1;" parent="1" source="BvYLNxid05pZm9tOstEs-9" target="BvYLNxid05pZm9tOstEs-25" edge="1">
          <mxGeometry relative="1" as="geometry" />
        </mxCell>
        <mxCell id="BvYLNxid05pZm9tOstEs-9" value="imput NumberOfOtherRooms" style="shape=parallelogram;perimeter=parallelogramPerimeter;whiteSpace=wrap;html=1;fixedSize=1;" parent="1" vertex="1">
          <mxGeometry x="-80" y="270" width="140" height="70" as="geometry" />
        </mxCell>
        <mxCell id="BvYLNxid05pZm9tOstEs-10" value="answer =&lt;div&gt;40+ (numberOfBathrooms * 15) + (numberOfOtherRooms * 10)&lt;/div&gt;" style="rounded=0;whiteSpace=wrap;html=1;" parent="1" vertex="1">
          <mxGeometry x="210" y="430" width="160" height="100" as="geometry" />
        </mxCell>
        <mxCell id="BvYLNxid05pZm9tOstEs-39" style="edgeStyle=orthogonalEdgeStyle;rounded=0;orthogonalLoop=1;jettySize=auto;html=1;" parent="1" source="BvYLNxid05pZm9tOstEs-11" target="BvYLNxid05pZm9tOstEs-12" edge="1">
          <mxGeometry relative="1" as="geometry" />
        </mxCell>
        <mxCell id="BvYLNxid05pZm9tOstEs-11" value="print&lt;div&gt;customerLastName&lt;/div&gt;" style="shape=parallelogram;perimeter=parallelogramPerimeter;whiteSpace=wrap;html=1;fixedSize=1;" parent="1" vertex="1">
          <mxGeometry x="450" y="340" width="130" height="70" as="geometry" />
        </mxCell>
        <mxCell id="BvYLNxid05pZm9tOstEs-40" style="edgeStyle=orthogonalEdgeStyle;rounded=0;orthogonalLoop=1;jettySize=auto;html=1;entryX=0.5;entryY=1;entryDx=0;entryDy=0;" parent="1" source="BvYLNxid05pZm9tOstEs-12" target="BvYLNxid05pZm9tOstEs-13" edge="1">
          <mxGeometry relative="1" as="geometry" />
        </mxCell>
        <mxCell id="BvYLNxid05pZm9tOstEs-12" value="print&lt;div&gt;numberOfBathrooms AND&lt;/div&gt;&lt;div&gt;numberOfBathrooms * 15&lt;/div&gt;" style="shape=parallelogram;perimeter=parallelogramPerimeter;whiteSpace=wrap;html=1;fixedSize=1;" parent="1" vertex="1">
          <mxGeometry x="437.5" y="190" width="155" height="70" as="geometry" />
        </mxCell>
        <mxCell id="BvYLNxid05pZm9tOstEs-41" style="edgeStyle=orthogonalEdgeStyle;rounded=0;orthogonalLoop=1;jettySize=auto;html=1;entryX=0;entryY=0.5;entryDx=0;entryDy=0;" parent="1" source="BvYLNxid05pZm9tOstEs-13" target="BvYLNxid05pZm9tOstEs-14" edge="1">
          <mxGeometry relative="1" as="geometry" />
        </mxCell>
        <mxCell id="BvYLNxid05pZm9tOstEs-13" value="print&lt;div&gt;numberOfOtherRooms AND numberOfOtherRooms * 10&lt;/div&gt;" style="shape=parallelogram;perimeter=parallelogramPerimeter;whiteSpace=wrap;html=1;fixedSize=1;size=30;" parent="1" vertex="1">
          <mxGeometry x="430" y="65" width="170" height="70" as="geometry" />
        </mxCell>
        <mxCell id="BvYLNxid05pZm9tOstEs-38" style="edgeStyle=orthogonalEdgeStyle;rounded=0;orthogonalLoop=1;jettySize=auto;html=1;" parent="1" source="BvYLNxid05pZm9tOstEs-14" target="BvYLNxid05pZm9tOstEs-15" edge="1">
          <mxGeometry relative="1" as="geometry" />
        </mxCell>
        <mxCell id="BvYLNxid05pZm9tOstEs-14" value="print answer" style="shape=parallelogram;perimeter=parallelogramPerimeter;whiteSpace=wrap;html=1;fixedSize=1;" parent="1" vertex="1">
          <mxGeometry x="680" y="70" width="120" height="60" as="geometry" />
        </mxCell>
        <mxCell id="BvYLNxid05pZm9tOstEs-37" style="edgeStyle=orthogonalEdgeStyle;rounded=0;orthogonalLoop=1;jettySize=auto;html=1;" parent="1" source="BvYLNxid05pZm9tOstEs-15" target="BvYLNxid05pZm9tOstEs-2" edge="1">
          <mxGeometry relative="1" as="geometry" />
        </mxCell>
        <mxCell id="BvYLNxid05pZm9tOstEs-15" value="print&lt;div&gt;&quot;process done&quot;&lt;/div&gt;" style="shape=parallelogram;perimeter=parallelogramPerimeter;whiteSpace=wrap;html=1;fixedSize=1;" parent="1" vertex="1">
          <mxGeometry x="680" y="180" width="120" height="60" as="geometry" />
        </mxCell>
        <mxCell id="BvYLNxid05pZm9tOstEs-31" style="edgeStyle=orthogonalEdgeStyle;rounded=0;orthogonalLoop=1;jettySize=auto;html=1;entryX=1;entryY=0.5;entryDx=0;entryDy=0;fillColor=#33FFFF;" parent="1" source="BvYLNxid05pZm9tOstEs-19" target="BvYLNxid05pZm9tOstEs-24" edge="1">
          <mxGeometry relative="1" as="geometry" />
        </mxCell>
        <mxCell id="BvYLNxid05pZm9tOstEs-33" style="edgeStyle=orthogonalEdgeStyle;rounded=0;orthogonalLoop=1;jettySize=auto;html=1;" parent="1" source="BvYLNxid05pZm9tOstEs-19" target="BvYLNxid05pZm9tOstEs-10" edge="1">
          <mxGeometry relative="1" as="geometry" />
        </mxCell>
        <mxCell id="BvYLNxid05pZm9tOstEs-19" value="imputRoomInfo()" style="rounded=0;whiteSpace=wrap;html=1;" parent="1" vertex="1">
          <mxGeometry x="230" y="270" width="120" height="60" as="geometry" />
        </mxCell>
        <mxCell id="BvYLNxid05pZm9tOstEs-20" value="" style="shape=link;html=1;rounded=0;entryX=1;entryY=0.25;entryDx=0;entryDy=0;exitX=0;exitY=0.25;exitDx=0;exitDy=0;" parent="1" source="BvYLNxid05pZm9tOstEs-19" target="BvYLNxid05pZm9tOstEs-19" edge="1">
          <mxGeometry width="100" relative="1" as="geometry">
            <mxPoint x="200" y="340" as="sourcePoint" />
            <mxPoint x="300" y="340" as="targetPoint" />
          </mxGeometry>
        </mxCell>
        <mxCell id="BvYLNxid05pZm9tOstEs-26" style="edgeStyle=orthogonalEdgeStyle;rounded=0;orthogonalLoop=1;jettySize=auto;html=1;" parent="1" source="BvYLNxid05pZm9tOstEs-24" target="BvYLNxid05pZm9tOstEs-8" edge="1">
          <mxGeometry relative="1" as="geometry" />
        </mxCell>
        <mxCell id="BvYLNxid05pZm9tOstEs-24" value="imputRoomInfo()" style="ellipse;whiteSpace=wrap;html=1;" parent="1" vertex="1">
          <mxGeometry x="-60" y="60" width="120" height="60" as="geometry" />
        </mxCell>
        <mxCell id="BvYLNxid05pZm9tOstEs-34" style="edgeStyle=orthogonalEdgeStyle;rounded=0;orthogonalLoop=1;jettySize=auto;html=1;strokeColor=light-dark(#FF6666,#FFFFFF);" parent="1" source="BvYLNxid05pZm9tOstEs-25" edge="1">
          <mxGeometry relative="1" as="geometry">
            <mxPoint x="290" y="380" as="targetPoint" />
          </mxGeometry>
        </mxCell>
        <mxCell id="BvYLNxid05pZm9tOstEs-25" value="return" style="ellipse;whiteSpace=wrap;html=1;" parent="1" vertex="1">
          <mxGeometry x="-70" y="380" width="120" height="60" as="geometry" />
        </mxCell>
        <mxCell id="BvYLNxid05pZm9tOstEs-27" style="edgeStyle=orthogonalEdgeStyle;rounded=0;orthogonalLoop=1;jettySize=auto;html=1;entryX=0.571;entryY=0.071;entryDx=0;entryDy=0;entryPerimeter=0;" parent="1" source="BvYLNxid05pZm9tOstEs-8" target="BvYLNxid05pZm9tOstEs-9" edge="1">
          <mxGeometry relative="1" as="geometry" />
        </mxCell>
        <mxCell id="BvYLNxid05pZm9tOstEs-36" style="edgeStyle=orthogonalEdgeStyle;rounded=0;orthogonalLoop=1;jettySize=auto;html=1;entryX=0.454;entryY=0.986;entryDx=0;entryDy=0;entryPerimeter=0;" parent="1" source="BvYLNxid05pZm9tOstEs-10" target="BvYLNxid05pZm9tOstEs-11" edge="1">
          <mxGeometry relative="1" as="geometry" />
        </mxCell>
      </root>
    </mxGraphModel>
  </diagram>
</mxfile>
